<?xml version="1.0" standalone="no"?>
<!DOCTYPE svg PUBLIC "-//W3C//DTD SVG 20010904//EN"
 "http://www.w3.org/TR/2001/REC-SVG-20010904/DTD/svg10.dtd">
<svg version="1.0" xmlns="http://www.w3.org/2000/svg"
 width="16.000000pt" height="16.000000pt" viewBox="0 0 16.000000 16.000000"
 preserveAspectRatio="xMidYMid meet">
<metadata>
Created by potrace 1.11, written by Peter Selinger 2001-2013
</metadata>
<g transform="translate(0.000000,16.000000) scale(0.001880,-0.001880)"
fill="#000000" stroke="none">
<path d="M5540 8309 c0 -5 4 -17 10 -27 25 -46 55 -127 81 -222 17 -62 18 -68
25 -128 8 -71 -1 -113 -31 -148 -25 -28 -27 -29 -113 -26 -111 5 -322 5 -482
1 -69 -1 -141 1 -160 5 -19 5 -111 46 -205 91 -93 46 -195 91 -225 100 -75 22
-185 27 -251 10 -30 -8 -74 -17 -99 -20 -25 -4 -63 -10 -85 -15 -22 -5 -60
-11 -85 -14 -44 -5 -181 -30 -230 -41 -14 -3 -60 -12 -104 -21 -43 -8 -113
-24 -155 -35 -42 -11 -87 -22 -101 -25 -14 -2 -41 -10 -60 -16 -19 -7 -40 -13
-46 -14 -17 -3 -256 -83 -279 -94 -11 -5 -55 -23 -97 -40 -68 -28 -200 -93
-322 -158 -33 -18 -231 -151 -326 -219 -37 -26 -62 -21 -93 21 -77 100 -136
129 -257 128 -108 -1 -164 -16 -218 -59 -56 -45 -56 -67 1 -70 23 0 56 -7 72
-14 17 -7 32 -13 35 -13 14 -3 49 -34 64 -58 31 -48 9 -101 -68 -165 -22 -19
-29 -16 -61 17 -54 57 -137 69 -232 33 -43 -16 -49 -37 -12 -48 22 -7 102 -84
118 -113 6 -11 11 -34 11 -51 0 -36 -52 -83 -121 -109 -26 -9 -69 -35 -95 -56
-72 -58 -206 -197 -259 -269 -25 -34 -53 -70 -61 -80 -8 -9 -14 -20 -14 -23 0
-3 -13 -24 -28 -47 -33 -49 -103 -186 -121 -237 -7 -19 -17 -44 -21 -55 -21
-54 -31 -87 -49 -165 -10 -47 -19 -92 -19 -100 -1 -8 -5 -42 -9 -75 -10 -75
-10 -222 1 -390 4 -71 9 -220 11 -330 1 -110 5 -247 9 -305 3 -58 9 -148 12
-200 9 -155 19 -263 31 -315 2 -11 6 -29 7 -40 8 -45 30 -121 39 -132 5 -7 7
-13 3 -13 -4 0 2 -17 13 -37 12 -26 16 -44 10 -58 -19 -45 -32 -81 -38 -105
-8 -34 -7 -140 1 -170 4 -14 9 -35 12 -48 14 -65 120 -240 177 -292 30 -28 39
-58 39 -128 0 -111 39 -205 123 -297 82 -89 132 -162 157 -229 49 -132 103
-206 214 -290 61 -47 71 -58 103 -116 16 -28 20 -51 18 -100 -2 -54 2 -76 25
-127 16 -35 34 -63 39 -63 6 0 11 -5 11 -11 0 -16 106 -116 130 -124 11 -4 20
-9 20 -13 0 -4 28 -18 61 -32 78 -32 130 -81 154 -145 26 -71 55 -114 111
-163 58 -51 212 -149 248 -158 14 -3 27 -10 27 -15 2 -14 6 -29 9 -31 8 -10
14 -206 7 -238 -2 -8 -7 -37 -12 -65 -4 -27 -12 -56 -17 -62 -6 -7 -8 -13 -5
-13 16 0 -92 -215 -128 -255 -5 -7 -21 -27 -35 -45 -14 -19 -50 -58 -80 -87
-46 -44 -60 -53 -90 -52 -50 2 -78 -12 -135 -68 -39 -39 -180 -156 -240 -201
-5 -4 -29 -22 -53 -40 -23 -19 -42 -30 -42 -25 0 4 -377 7 -838 6 -968 -2
-872 0 -872 -13 0 -7 1425 -10 4255 -10 2830 0 4255 3 4255 10 0 6 -6 10 -12
11 -7 0 -642 1 -1410 1 -1197 0 -1396 2 -1392 14 2 8 7 22 10 32 4 9 8 24 9
32 2 8 6 24 8 35 3 11 15 55 26 98 11 43 30 110 42 150 13 40 24 79 25 87 8
43 50 183 72 240 3 8 6 20 7 25 0 6 3 15 6 20 7 12 22 64 24 85 5 42 30 122
42 132 8 6 78 11 175 13 90 1 173 5 186 8 12 3 22 1 22 -5 0 -7 4 -7 13 0 11
10 52 20 107 26 14 2 43 8 65 14 22 6 51 13 65 16 39 7 164 54 238 89 66 32
172 103 172 115 0 4 13 21 28 37 80 86 179 306 207 460 5 22 10 51 13 65 9 50
3 217 -11 275 -13 59 -11 89 16 225 10 50 49 155 64 172 14 16 19 88 10 138
-7 33 -47 98 -71 114 -36 23 -34 58 5 90 37 31 37 34 14 181 -12 79 -16 202
-7 226 8 20 20 28 49 32 61 10 233 101 291 154 87 80 103 133 62 213 -28 55
-126 153 -210 210 -205 139 -358 334 -463 592 -14 34 -14 41 1 80 9 24 47 90
84 147 69 106 95 170 82 200 -4 9 -8 18 -9 21 -5 16 -20 51 -41 98 -12 28 -21
52 -18 52 3 0 -2 10 -10 22 -9 12 -16 32 -16 45 0 12 -4 24 -9 27 -4 3 -19 34
-31 68 -13 35 -29 79 -37 98 -8 19 -19 44 -23 55 -52 126 -61 167 -64 305 -3
121 -7 137 -54 244 -19 44 -35 84 -37 90 -2 12 -11 38 -25 71 -4 11 -13 36
-20 55 -19 54 -39 100 -71 161 -34 66 -35 82 -11 107 36 39 142 184 142 196 0
2 15 31 34 63 38 63 70 144 82 208 24 124 -25 315 -99 383 -21 20 -24 28 -16
55 12 41 21 49 66 56 37 6 38 8 41 51 2 38 -2 51 -25 77 -26 29 -110 76 -129
72 -5 -1 -19 -1 -31 0 -19 1 -21 6 -17 43 2 23 7 50 10 60 6 19 6 23 25 133
28 166 13 309 -39 383 -29 40 -38 40 -48 0 -12 -50 -14 -56 -50 -135 -26 -56
-56 -94 -89 -110 -28 -14 -76 -6 -100 17 -11 11 -60 59 -110 107 -136 133
-183 171 -260 208 -73 36 -168 54 -180 34 -4 -6 2 -20 13 -32 62 -69 104 -171
91 -221 -8 -28 -45 -76 -60 -76 -4 0 -20 22 -36 50 -15 27 -31 50 -35 50 -5 0
-8 4 -8 10 0 13 -34 53 -102 122 -76 75 -228 160 -228 127z"/>
</g>
</svg>
